<svg height="512" viewBox="0 0 448 512" width="448" xmlns="http://www.w3.org/2000/svg"><path d="m48 32c-26.5 0-48 21.5-48 48v352c0 26.5 21.5 48 48 48h352c26.5 0 48-21.5 48-48v-352c0-26.5-21.5-48-48-48zm103.28906 142.26953h.74805c1.29865.0109 2.62906.03309 3.94922.08789 1.21186.05469 2.44829.20665 3.66015.28125.19469.0224.40897.04343.59961.07813 7.89971.6814 15.57462 2.18757 22.89063 4.63281.84402.27052 1.65604.57319 2.47851.86523.27052.08677.54086.19372.80079.29102 6.88255 2.58668 13.12557 5.76755 18.65625 9.46875l-23.11524 41.50391c-7.36925-7.30545-16.61206-11.04928-28.5918-11.50391l-2.34765-.06641c-7.5428 0-14.12376 1.56951-19.90235 4.71875a16.946578 16.946578 0 0 0 -.875.48633c-2.06643 1.23337-4.04814 2.61914-5.9414 4.25391-7.78123 6.80671-11.64386 14.68534-12.06641 24.81445 0 .14-.01248.29167-.02148.46484-.19467 6.36411 1.20232 12.37017 4.35156 18.2461 2.79194 5.18287 6.5252 9.34017 11.39453 12.57617a37.708483 37.708483 0 0 0 1.85156 1.16797c5.96269 3.52768 12.68311 5.37823 20.51758 5.6914.9519.05471 1.88372.09766 2.79297.09766 13.00931 0 23.12684-4.80516 32.07617-14.62109 4.01476-5.58391 7.60839-12.34762 10.96289-19.13281l1.6875-3.41993.80274-1.56836-.02149-.02148 15.29102-30.91797a159.01529 159.01529 0 0 1 3.44141-5.69336c1.74268-2.90134 4.11254-6.12503 6.67773-9.24219l.04297.04297.00976.02149c1.23337-1.52542 2.55406-3.084 3.93946-4.64258l1.87109-1.96875.35742-.39063.73633-.72461h-.02148l1.56836-1.66601 1.14843-1.12695c1.59066-1.46159 3.07167-2.79025 4.43555-3.87305 6.69843-5.38923 14.8929-9.88131 24.29688-13.27735 9.32923-3.4307 19.2517-5.37853 29.51171-5.84374 1.50533-.0546 2.99774-.07618 4.42579-.07618 14.60942 0 28.2997 2.98817 40.6914 8.90821 8.23477 3.97066 15.54021 8.99189 21.84961 15.0625 4.31883 4.14383 8.18257 8.76493 11.55859 13.85156 7.56393 11.4066 12.0222 24.03667 13.2129 37.53125v.02148.02149c.09729 1.24394.18348 2.46667.23828 3.72265a133.97395 133.97395 0 0 1 .08984 3.47461v.61719c-.07583 20.72381-8.20431 38.2339-23.18164 53.56836-15.81183 16.14651-37.73739 25.57343-62.33594 26.60156-1.66649.0651-1.34212.06641-2.94336.06641-13.81978 0-26.33004-2.94399-37.83398-7.85742-4.74027-2.05586-10.68134-5.36894-15.28125-8.73438-4.58933-3.37601-11.28711-10.1289-11.28711-10.1289l21.55664-39.64063c5.16244 5.3575 15.62785 17.34728 32.06641 20.76758l.10742-.04297c4.27434.94137 8.80857 1.25542 13.47265.85547 22.40123-1.93738 39.11039-19.78408 37.31446-39.86914-1.80684-20.08506-21.43864-34.80376-43.83985-32.87696-13.35457 1.14807-24.68489 7.95376-31.27539 17.50977l-.07617.11914c-2.82403 4.01439-4.9556 7.83425-7.91016 13.21289l-.99609 1.79492-1.18945 2.29493v.07617s-20.04379 37.65072-26.20117 47.99609l-.73633 1.05859-.73633 1.08399-1.58008 1.98047-4.14453 4.68359c-1.10395 1.15864-2.27221 2.28588-3.44141 3.40039l-.6914.65821c-1.99061 1.80796-4.03591 3.50702-6.22266 5.07617l-1.81836 1.24414-1.08398.72656c-1.45977 1.01755-2.93166 1.9685-4.49024 2.86719-2.86815 1.61181-5.66928 3.0635-8.55859 4.29687-11.55719 4.95574-24.44694 7.4336-38.375 7.4336-1.55858 0-3.11717-.04233-4.69727-.10742-24.61971-1.02777-45.12684-9.73045-60.894528-25.87696-15.107838-15.38928-22.704312-33.7207-22.695312-54.56445 0-1.2454.031338-2.50963.085938-3.78711.64932-14.90256 5.173817-28.78633 13.46289-41.29688 8.310616-12.51054 19.522826-22.21805 33.353512-28.88476 12.34795-5.89852 25.85341-8.87489 40.38672-8.92969z"/></svg>