<svg height="32" viewBox="0 0 32 32" width="32" xmlns="http://www.w3.org/2000/svg"><path d="m31.438 17.839c-.104-.089-.234-.156-.37-.188-.802.818-1.802 1.667-2.667 2.245-.417.266-.932.396-1.266.396-.786 0-1.12-.729-1.214-1.917-.172-2.146-.25-4.292-.229-6.443 0-3.01-.693-5.068-2.505-5.224l-.24-.016c-1.109 0-1.656.573-2.359 2.026-.615 1.255-1.563 3.068-3.307 6.536-1.318 2.62-2.88 5.109-4.667 7.438-.417.505-.734.854-1.042 1.068-.172.12-.375.182-.589.188-.573 0-1-.479-1.13-1.615-.036-.307-.057-.615-.052-.922 0-2.333.88-6.13 2.396-11.703 1.109-4.068.641-6.844-1.786-6.844h-.036c-.547 0-1 .214-1.443.563-.438.333-.865 1.078-1.281 2.078-.453 1.12-3.224 6.708-7.651 9.599-.052 1.083.563 2.177 1.828 2.307 1.13.109 1.943-.37 2.984-1.078l-.214.974c-.271 1.146-.49 2.302-.667 3.464-.615 5.604 1.964 8.365 4.99 8.365.505 0 1.01-.068 1.505-.203 3.333-.839 6.531-4.677 10.333-13.505-.052.896-.057 1.797-.016 2.693.255 5.068 2.24 6.573 5.068 6.573 2.135 0 4.12-1.104 5.135-2.495.656-.833 1.026-1.854 1.052-2.917-.026-.656-.229-1.177-.563-1.443z"/></svg>